<mxfile host="app.diagrams.net" modified="2022-04-27T02:34:38.458Z" agent="5.0 (Windows NT 10.0; Win64; x64) AppleWebKit/537.36 (KHTML, like Gecko) Chrome/100.0.4896.127 Safari/537.36" etag="Rc8LDtO8fHNgapOfdF-D" version="17.4.6" type="github">
  <diagram id="C5RBs43oDa-KdzZeNtuy" name="Page-1">
    <mxGraphModel dx="734" dy="657" grid="1" gridSize="10" guides="1" tooltips="1" connect="1" arrows="1" fold="1" page="1" pageScale="1" pageWidth="827" pageHeight="1169" math="0" shadow="0">
      <root>
        <mxCell id="WIyWlLk6GJQsqaUBKTNV-0" />
        <mxCell id="WIyWlLk6GJQsqaUBKTNV-1" parent="WIyWlLk6GJQsqaUBKTNV-0" />
        <mxCell id="R4FNj_KduAZssh1zCfbB-2" style="edgeStyle=none;curved=1;rounded=0;orthogonalLoop=1;jettySize=auto;html=1;exitX=0.25;exitY=1;exitDx=0;exitDy=0;entryX=0.25;entryY=0;entryDx=0;entryDy=0;endArrow=open;startSize=14;endSize=14;sourcePerimeterSpacing=8;targetPerimeterSpacing=8;" edge="1" parent="WIyWlLk6GJQsqaUBKTNV-1" source="WIyWlLk6GJQsqaUBKTNV-3" target="R4FNj_KduAZssh1zCfbB-1">
          <mxGeometry relative="1" as="geometry" />
        </mxCell>
        <mxCell id="R4FNj_KduAZssh1zCfbB-4" value="请求" style="edgeLabel;html=1;align=center;verticalAlign=middle;resizable=0;points=[];" vertex="1" connectable="0" parent="R4FNj_KduAZssh1zCfbB-2">
          <mxGeometry x="-0.4" y="1" relative="1" as="geometry">
            <mxPoint as="offset" />
          </mxGeometry>
        </mxCell>
        <mxCell id="WIyWlLk6GJQsqaUBKTNV-3" value="发起访问请求" style="rounded=1;whiteSpace=wrap;html=1;fontSize=12;glass=0;strokeWidth=1;shadow=0;" parent="WIyWlLk6GJQsqaUBKTNV-1" vertex="1">
          <mxGeometry x="160" y="80" width="120" height="40" as="geometry" />
        </mxCell>
        <mxCell id="R4FNj_KduAZssh1zCfbB-14" style="edgeStyle=none;curved=1;rounded=0;orthogonalLoop=1;jettySize=auto;html=1;exitX=0.5;exitY=1;exitDx=0;exitDy=0;entryX=0.5;entryY=0;entryDx=0;entryDy=0;endArrow=open;startSize=14;endSize=14;sourcePerimeterSpacing=8;targetPerimeterSpacing=8;" edge="1" parent="WIyWlLk6GJQsqaUBKTNV-1" source="WIyWlLk6GJQsqaUBKTNV-6" target="R4FNj_KduAZssh1zCfbB-8">
          <mxGeometry relative="1" as="geometry" />
        </mxCell>
        <mxCell id="R4FNj_KduAZssh1zCfbB-15" value="URL分析&lt;br&gt;执行对应的控制器" style="edgeLabel;html=1;align=center;verticalAlign=middle;resizable=0;points=[];" vertex="1" connectable="0" parent="R4FNj_KduAZssh1zCfbB-14">
          <mxGeometry x="-0.3667" relative="1" as="geometry">
            <mxPoint as="offset" />
          </mxGeometry>
        </mxCell>
        <mxCell id="WIyWlLk6GJQsqaUBKTNV-6" value="路由层" style="rhombus;whiteSpace=wrap;html=1;shadow=0;fontFamily=Helvetica;fontSize=12;align=center;strokeWidth=1;spacing=6;spacingTop=-4;" parent="WIyWlLk6GJQsqaUBKTNV-1" vertex="1">
          <mxGeometry x="170" y="290" width="100" height="80" as="geometry" />
        </mxCell>
        <mxCell id="R4FNj_KduAZssh1zCfbB-3" style="edgeStyle=none;curved=1;rounded=0;orthogonalLoop=1;jettySize=auto;html=1;exitX=0.75;exitY=0;exitDx=0;exitDy=0;entryX=0.75;entryY=1;entryDx=0;entryDy=0;endArrow=open;startSize=14;endSize=14;sourcePerimeterSpacing=8;targetPerimeterSpacing=8;" edge="1" parent="WIyWlLk6GJQsqaUBKTNV-1" source="R4FNj_KduAZssh1zCfbB-1" target="WIyWlLk6GJQsqaUBKTNV-3">
          <mxGeometry relative="1" as="geometry" />
        </mxCell>
        <mxCell id="R4FNj_KduAZssh1zCfbB-5" value="返回" style="edgeLabel;html=1;align=center;verticalAlign=middle;resizable=0;points=[];" vertex="1" connectable="0" parent="R4FNj_KduAZssh1zCfbB-3">
          <mxGeometry x="-0.3667" y="-2" relative="1" as="geometry">
            <mxPoint as="offset" />
          </mxGeometry>
        </mxCell>
        <mxCell id="R4FNj_KduAZssh1zCfbB-6" style="edgeStyle=none;curved=1;rounded=0;orthogonalLoop=1;jettySize=auto;html=1;exitX=0.5;exitY=1;exitDx=0;exitDy=0;entryX=0.5;entryY=0;entryDx=0;entryDy=0;endArrow=open;startSize=14;endSize=14;sourcePerimeterSpacing=8;targetPerimeterSpacing=8;" edge="1" parent="WIyWlLk6GJQsqaUBKTNV-1" source="R4FNj_KduAZssh1zCfbB-1" target="WIyWlLk6GJQsqaUBKTNV-6">
          <mxGeometry relative="1" as="geometry" />
        </mxCell>
        <mxCell id="R4FNj_KduAZssh1zCfbB-7" value="执行请求" style="edgeLabel;html=1;align=center;verticalAlign=middle;resizable=0;points=[];" vertex="1" connectable="0" parent="R4FNj_KduAZssh1zCfbB-6">
          <mxGeometry x="-0.4333" relative="1" as="geometry">
            <mxPoint as="offset" />
          </mxGeometry>
        </mxCell>
        <mxCell id="R4FNj_KduAZssh1zCfbB-1" value="服务器" style="rounded=0;whiteSpace=wrap;html=1;hachureGap=4;" vertex="1" parent="WIyWlLk6GJQsqaUBKTNV-1">
          <mxGeometry x="160" y="180" width="120" height="50" as="geometry" />
        </mxCell>
        <mxCell id="R4FNj_KduAZssh1zCfbB-11" style="edgeStyle=none;curved=1;rounded=0;orthogonalLoop=1;jettySize=auto;html=1;exitX=0.5;exitY=1;exitDx=0;exitDy=0;entryX=0.5;entryY=0;entryDx=0;entryDy=0;endArrow=open;startSize=14;endSize=14;sourcePerimeterSpacing=8;targetPerimeterSpacing=8;" edge="1" parent="WIyWlLk6GJQsqaUBKTNV-1" source="R4FNj_KduAZssh1zCfbB-8" target="R4FNj_KduAZssh1zCfbB-10">
          <mxGeometry relative="1" as="geometry" />
        </mxCell>
        <mxCell id="R4FNj_KduAZssh1zCfbB-16" value="加载视图" style="edgeLabel;html=1;align=center;verticalAlign=middle;resizable=0;points=[];" vertex="1" connectable="0" parent="R4FNj_KduAZssh1zCfbB-11">
          <mxGeometry x="-0.3527" y="-1" relative="1" as="geometry">
            <mxPoint as="offset" />
          </mxGeometry>
        </mxCell>
        <mxCell id="R4FNj_KduAZssh1zCfbB-8" value="控制器" style="rounded=0;whiteSpace=wrap;html=1;hachureGap=4;" vertex="1" parent="WIyWlLk6GJQsqaUBKTNV-1">
          <mxGeometry x="160" y="430" width="120" height="50" as="geometry" />
        </mxCell>
        <mxCell id="R4FNj_KduAZssh1zCfbB-13" style="edgeStyle=orthogonalEdgeStyle;rounded=0;orthogonalLoop=1;jettySize=auto;html=1;exitX=1;exitY=0.5;exitDx=0;exitDy=0;endArrow=open;startSize=14;endSize=14;sourcePerimeterSpacing=8;targetPerimeterSpacing=8;entryX=1;entryY=0.5;entryDx=0;entryDy=0;" edge="1" parent="WIyWlLk6GJQsqaUBKTNV-1" source="R4FNj_KduAZssh1zCfbB-10" target="R4FNj_KduAZssh1zCfbB-1">
          <mxGeometry relative="1" as="geometry">
            <mxPoint x="330" y="220" as="targetPoint" />
            <Array as="points">
              <mxPoint x="360" y="560" />
              <mxPoint x="360" y="205" />
            </Array>
          </mxGeometry>
        </mxCell>
        <mxCell id="R4FNj_KduAZssh1zCfbB-18" value="输出视图" style="edgeLabel;html=1;align=center;verticalAlign=middle;resizable=0;points=[];" vertex="1" connectable="0" parent="R4FNj_KduAZssh1zCfbB-13">
          <mxGeometry x="0.1076" relative="1" as="geometry">
            <mxPoint as="offset" />
          </mxGeometry>
        </mxCell>
        <mxCell id="R4FNj_KduAZssh1zCfbB-10" value="视图" style="rounded=0;whiteSpace=wrap;html=1;hachureGap=4;" vertex="1" parent="WIyWlLk6GJQsqaUBKTNV-1">
          <mxGeometry x="160" y="535" width="120" height="50" as="geometry" />
        </mxCell>
        <mxCell id="R4FNj_KduAZssh1zCfbB-19" style="edgeStyle=none;curved=1;rounded=0;orthogonalLoop=1;jettySize=auto;html=1;exitX=0.25;exitY=1;exitDx=0;exitDy=0;entryX=0.25;entryY=0;entryDx=0;entryDy=0;endArrow=open;startSize=14;endSize=14;sourcePerimeterSpacing=8;targetPerimeterSpacing=8;" edge="1" parent="WIyWlLk6GJQsqaUBKTNV-1" source="R4FNj_KduAZssh1zCfbB-21" target="R4FNj_KduAZssh1zCfbB-29">
          <mxGeometry relative="1" as="geometry" />
        </mxCell>
        <mxCell id="R4FNj_KduAZssh1zCfbB-20" value="请求" style="edgeLabel;html=1;align=center;verticalAlign=middle;resizable=0;points=[];" vertex="1" connectable="0" parent="R4FNj_KduAZssh1zCfbB-19">
          <mxGeometry x="-0.4" y="1" relative="1" as="geometry">
            <mxPoint as="offset" />
          </mxGeometry>
        </mxCell>
        <mxCell id="R4FNj_KduAZssh1zCfbB-21" value="发起访问请求" style="rounded=1;whiteSpace=wrap;html=1;fontSize=12;glass=0;strokeWidth=1;shadow=0;" vertex="1" parent="WIyWlLk6GJQsqaUBKTNV-1">
          <mxGeometry x="525" y="80" width="120" height="40" as="geometry" />
        </mxCell>
        <mxCell id="R4FNj_KduAZssh1zCfbB-39" style="edgeStyle=orthogonalEdgeStyle;rounded=0;orthogonalLoop=1;jettySize=auto;html=1;exitX=0.5;exitY=1;exitDx=0;exitDy=0;entryX=0.5;entryY=0;entryDx=0;entryDy=0;endArrow=open;startSize=14;endSize=14;sourcePerimeterSpacing=8;targetPerimeterSpacing=8;" edge="1" parent="WIyWlLk6GJQsqaUBKTNV-1" source="R4FNj_KduAZssh1zCfbB-24" target="R4FNj_KduAZssh1zCfbB-32">
          <mxGeometry relative="1" as="geometry" />
        </mxCell>
        <mxCell id="R4FNj_KduAZssh1zCfbB-40" style="edgeStyle=orthogonalEdgeStyle;rounded=0;orthogonalLoop=1;jettySize=auto;html=1;exitX=0.5;exitY=1;exitDx=0;exitDy=0;entryX=0.5;entryY=0;entryDx=0;entryDy=0;endArrow=open;startSize=14;endSize=14;sourcePerimeterSpacing=8;targetPerimeterSpacing=8;" edge="1" parent="WIyWlLk6GJQsqaUBKTNV-1" source="R4FNj_KduAZssh1zCfbB-24" target="R4FNj_KduAZssh1zCfbB-38">
          <mxGeometry relative="1" as="geometry" />
        </mxCell>
        <mxCell id="R4FNj_KduAZssh1zCfbB-41" style="edgeStyle=orthogonalEdgeStyle;rounded=0;orthogonalLoop=1;jettySize=auto;html=1;exitX=0.5;exitY=1;exitDx=0;exitDy=0;entryX=0.5;entryY=0;entryDx=0;entryDy=0;endArrow=open;startSize=14;endSize=14;sourcePerimeterSpacing=8;targetPerimeterSpacing=8;" edge="1" parent="WIyWlLk6GJQsqaUBKTNV-1" source="R4FNj_KduAZssh1zCfbB-24" target="R4FNj_KduAZssh1zCfbB-36">
          <mxGeometry relative="1" as="geometry" />
        </mxCell>
        <mxCell id="R4FNj_KduAZssh1zCfbB-42" style="edgeStyle=orthogonalEdgeStyle;rounded=0;orthogonalLoop=1;jettySize=auto;html=1;exitX=0.5;exitY=1;exitDx=0;exitDy=0;entryX=0.5;entryY=0;entryDx=0;entryDy=0;endArrow=open;startSize=14;endSize=14;sourcePerimeterSpacing=8;targetPerimeterSpacing=8;" edge="1" parent="WIyWlLk6GJQsqaUBKTNV-1" source="R4FNj_KduAZssh1zCfbB-24" target="R4FNj_KduAZssh1zCfbB-37">
          <mxGeometry relative="1" as="geometry" />
        </mxCell>
        <mxCell id="R4FNj_KduAZssh1zCfbB-24" value="路由层" style="rhombus;whiteSpace=wrap;html=1;shadow=0;fontFamily=Helvetica;fontSize=12;align=center;strokeWidth=1;spacing=6;spacingTop=-4;" vertex="1" parent="WIyWlLk6GJQsqaUBKTNV-1">
          <mxGeometry x="535" y="290" width="100" height="80" as="geometry" />
        </mxCell>
        <mxCell id="R4FNj_KduAZssh1zCfbB-25" style="edgeStyle=none;curved=1;rounded=0;orthogonalLoop=1;jettySize=auto;html=1;exitX=0.75;exitY=0;exitDx=0;exitDy=0;entryX=0.75;entryY=1;entryDx=0;entryDy=0;endArrow=open;startSize=14;endSize=14;sourcePerimeterSpacing=8;targetPerimeterSpacing=8;" edge="1" parent="WIyWlLk6GJQsqaUBKTNV-1" source="R4FNj_KduAZssh1zCfbB-29" target="R4FNj_KduAZssh1zCfbB-21">
          <mxGeometry relative="1" as="geometry" />
        </mxCell>
        <mxCell id="R4FNj_KduAZssh1zCfbB-26" value="返回" style="edgeLabel;html=1;align=center;verticalAlign=middle;resizable=0;points=[];" vertex="1" connectable="0" parent="R4FNj_KduAZssh1zCfbB-25">
          <mxGeometry x="-0.3667" y="-2" relative="1" as="geometry">
            <mxPoint as="offset" />
          </mxGeometry>
        </mxCell>
        <mxCell id="R4FNj_KduAZssh1zCfbB-27" style="edgeStyle=none;curved=1;rounded=0;orthogonalLoop=1;jettySize=auto;html=1;exitX=0.5;exitY=1;exitDx=0;exitDy=0;entryX=0.5;entryY=0;entryDx=0;entryDy=0;endArrow=open;startSize=14;endSize=14;sourcePerimeterSpacing=8;targetPerimeterSpacing=8;" edge="1" parent="WIyWlLk6GJQsqaUBKTNV-1" source="R4FNj_KduAZssh1zCfbB-29" target="R4FNj_KduAZssh1zCfbB-24">
          <mxGeometry relative="1" as="geometry" />
        </mxCell>
        <mxCell id="R4FNj_KduAZssh1zCfbB-28" value="执行请求" style="edgeLabel;html=1;align=center;verticalAlign=middle;resizable=0;points=[];" vertex="1" connectable="0" parent="R4FNj_KduAZssh1zCfbB-27">
          <mxGeometry x="-0.4333" relative="1" as="geometry">
            <mxPoint as="offset" />
          </mxGeometry>
        </mxCell>
        <mxCell id="R4FNj_KduAZssh1zCfbB-29" value="服务器" style="rounded=0;whiteSpace=wrap;html=1;hachureGap=4;" vertex="1" parent="WIyWlLk6GJQsqaUBKTNV-1">
          <mxGeometry x="525" y="180" width="120" height="50" as="geometry" />
        </mxCell>
        <mxCell id="R4FNj_KduAZssh1zCfbB-30" style="edgeStyle=none;curved=1;rounded=0;orthogonalLoop=1;jettySize=auto;html=1;exitX=0.5;exitY=1;exitDx=0;exitDy=0;entryX=0.5;entryY=0;entryDx=0;entryDy=0;endArrow=open;startSize=14;endSize=14;sourcePerimeterSpacing=8;targetPerimeterSpacing=8;" edge="1" parent="WIyWlLk6GJQsqaUBKTNV-1" source="R4FNj_KduAZssh1zCfbB-32" target="R4FNj_KduAZssh1zCfbB-35">
          <mxGeometry relative="1" as="geometry" />
        </mxCell>
        <mxCell id="R4FNj_KduAZssh1zCfbB-32" value="GET" style="rounded=0;whiteSpace=wrap;html=1;hachureGap=4;" vertex="1" parent="WIyWlLk6GJQsqaUBKTNV-1">
          <mxGeometry x="455" y="430" width="50" height="20" as="geometry" />
        </mxCell>
        <mxCell id="R4FNj_KduAZssh1zCfbB-33" style="edgeStyle=orthogonalEdgeStyle;rounded=0;orthogonalLoop=1;jettySize=auto;html=1;exitX=0.5;exitY=1;exitDx=0;exitDy=0;endArrow=open;startSize=14;endSize=14;sourcePerimeterSpacing=8;targetPerimeterSpacing=8;entryX=1;entryY=0.5;entryDx=0;entryDy=0;" edge="1" parent="WIyWlLk6GJQsqaUBKTNV-1" source="R4FNj_KduAZssh1zCfbB-35" target="R4FNj_KduAZssh1zCfbB-29">
          <mxGeometry relative="1" as="geometry">
            <mxPoint x="695" y="220" as="targetPoint" />
            <Array as="points">
              <mxPoint x="490" y="580" />
              <mxPoint x="725" y="580" />
              <mxPoint x="725" y="205" />
            </Array>
          </mxGeometry>
        </mxCell>
        <mxCell id="R4FNj_KduAZssh1zCfbB-34" value="输出视图" style="edgeLabel;html=1;align=center;verticalAlign=middle;resizable=0;points=[];" vertex="1" connectable="0" parent="R4FNj_KduAZssh1zCfbB-33">
          <mxGeometry x="0.1076" relative="1" as="geometry">
            <mxPoint as="offset" />
          </mxGeometry>
        </mxCell>
        <mxCell id="R4FNj_KduAZssh1zCfbB-35" value="视图" style="rounded=0;whiteSpace=wrap;html=1;hachureGap=4;" vertex="1" parent="WIyWlLk6GJQsqaUBKTNV-1">
          <mxGeometry x="420" y="500" width="120" height="50" as="geometry" />
        </mxCell>
        <mxCell id="R4FNj_KduAZssh1zCfbB-44" style="edgeStyle=orthogonalEdgeStyle;rounded=0;orthogonalLoop=1;jettySize=auto;html=1;exitX=0.5;exitY=1;exitDx=0;exitDy=0;entryX=0.5;entryY=0;entryDx=0;entryDy=0;endArrow=open;startSize=14;endSize=14;sourcePerimeterSpacing=8;targetPerimeterSpacing=8;" edge="1" parent="WIyWlLk6GJQsqaUBKTNV-1" source="R4FNj_KduAZssh1zCfbB-36" target="R4FNj_KduAZssh1zCfbB-43">
          <mxGeometry relative="1" as="geometry" />
        </mxCell>
        <mxCell id="R4FNj_KduAZssh1zCfbB-36" value="POST" style="rounded=0;whiteSpace=wrap;html=1;hachureGap=4;" vertex="1" parent="WIyWlLk6GJQsqaUBKTNV-1">
          <mxGeometry x="525" y="430" width="50" height="20" as="geometry" />
        </mxCell>
        <mxCell id="R4FNj_KduAZssh1zCfbB-50" style="edgeStyle=orthogonalEdgeStyle;rounded=0;orthogonalLoop=1;jettySize=auto;html=1;exitX=0.5;exitY=1;exitDx=0;exitDy=0;entryX=0.5;entryY=0;entryDx=0;entryDy=0;endArrow=open;startSize=14;endSize=14;sourcePerimeterSpacing=8;targetPerimeterSpacing=8;" edge="1" parent="WIyWlLk6GJQsqaUBKTNV-1" source="R4FNj_KduAZssh1zCfbB-37" target="R4FNj_KduAZssh1zCfbB-43">
          <mxGeometry relative="1" as="geometry" />
        </mxCell>
        <mxCell id="R4FNj_KduAZssh1zCfbB-37" value="PUT" style="rounded=0;whiteSpace=wrap;html=1;hachureGap=4;" vertex="1" parent="WIyWlLk6GJQsqaUBKTNV-1">
          <mxGeometry x="585" y="430" width="50" height="20" as="geometry" />
        </mxCell>
        <mxCell id="R4FNj_KduAZssh1zCfbB-45" style="edgeStyle=orthogonalEdgeStyle;rounded=0;orthogonalLoop=1;jettySize=auto;html=1;exitX=0.5;exitY=1;exitDx=0;exitDy=0;entryX=0.5;entryY=0;entryDx=0;entryDy=0;endArrow=open;startSize=14;endSize=14;sourcePerimeterSpacing=8;targetPerimeterSpacing=8;" edge="1" parent="WIyWlLk6GJQsqaUBKTNV-1" source="R4FNj_KduAZssh1zCfbB-38" target="R4FNj_KduAZssh1zCfbB-43">
          <mxGeometry relative="1" as="geometry" />
        </mxCell>
        <mxCell id="R4FNj_KduAZssh1zCfbB-38" value="DELETE" style="rounded=0;whiteSpace=wrap;html=1;hachureGap=4;" vertex="1" parent="WIyWlLk6GJQsqaUBKTNV-1">
          <mxGeometry x="645" y="430" width="50" height="20" as="geometry" />
        </mxCell>
        <mxCell id="R4FNj_KduAZssh1zCfbB-43" value="状态视图" style="rounded=0;whiteSpace=wrap;html=1;hachureGap=4;" vertex="1" parent="WIyWlLk6GJQsqaUBKTNV-1">
          <mxGeometry x="550" y="500" width="120" height="50" as="geometry" />
        </mxCell>
      </root>
    </mxGraphModel>
  </diagram>
</mxfile>
